<svg width="14" height="13" viewBox="0 0 14 13" fill="none" xmlns="http://www.w3.org/2000/svg">
<path d="M13.9499 9.65736C13.8638 9.51365 13.6342 9.42743 13.2897 9.25491C12.9453 9.08248 11.2518 8.24909 10.936 8.13401C10.6203 8.01908 10.3906 7.96165 10.161 8.30644C9.9314 8.65131 9.27127 9.42743 9.07033 9.65736C8.86939 9.88723 8.66845 9.9161 8.32413 9.74358C7.97967 9.57115 6.86978 9.20737 5.55408 8.03355C4.53008 7.11996 3.83878 5.99178 3.63786 5.64686C3.43693 5.30193 3.61643 5.11554 3.78887 4.94374C3.94384 4.78931 4.13335 4.54123 4.30557 4.34011C4.47778 4.13899 4.53519 3.99519 4.65001 3.76541C4.76482 3.53537 4.70743 3.33425 4.62129 3.16179C4.53519 2.98932 3.84632 1.29348 3.55928 0.603623C3.27966 -0.0681895 2.9957 0.0228182 2.78428 0.0122051C2.58359 0.00212259 2.35371 0 2.1241 0C1.89448 0 1.52129 0.0862318 1.20556 0.431159C0.889837 0.776086 0 1.60962 0 3.30533C0 5.00118 1.23425 6.63945 1.40649 6.86936C1.57871 7.0994 3.83536 10.5793 7.29076 12.0716C8.11257 12.4266 8.75413 12.6386 9.25443 12.7974C10.0796 13.0596 10.8305 13.0226 11.4239 12.9339C12.0858 12.835 13.4619 12.1005 13.749 11.2957C14.0359 10.4908 14.0359 9.80101 13.9499 9.65736Z" fill="#252525"/>
</svg>
