<svg width="16" height="16" viewBox="0 0 16 16" fill="none" xmlns="http://www.w3.org/2000/svg">
<path fill-rule="evenodd" clip-rule="evenodd" d="M8.03349 15.8625H8.0302C6.69689 15.8621 5.38679 15.5291 4.22319 14.8975L0 16L1.1302 11.8916C0.433036 10.6892 0.066194 9.32527 0.0667918 7.92791C0.0685395 3.5565 3.64233 0 8.03342 0C10.1646 0.000915378 12.1648 0.826592 13.6689 2.32523C15.173 3.82379 16.0008 5.81574 16 7.93417C15.9982 12.3046 12.4259 15.8607 8.03349 15.8625ZM4.41886 13.4618L4.66065 13.6046C5.67728 14.205 6.84265 14.5227 8.03082 14.5232H8.0335C11.6831 14.5232 14.6534 11.567 14.6549 7.93338C14.6556 6.17256 13.9675 4.51694 12.7174 3.27133C11.4672 2.02572 9.8047 1.33941 8.03611 1.3388C4.38373 1.3388 1.41331 4.29473 1.41187 7.92804C1.41135 9.17321 1.76142 10.3858 2.42424 11.435L2.58168 11.6843L1.91277 14.1161L4.41886 13.4618ZM11.7744 9.64128C11.9132 9.70806 12.007 9.75315 12.047 9.81966C12.0967 9.90225 12.0967 10.2989 11.9309 10.7617C11.765 11.2245 10.9698 11.6468 10.5873 11.7037C10.2444 11.7547 9.81037 11.776 9.33354 11.6252C9.04442 11.5339 8.67367 11.412 8.19875 11.2079C6.33262 10.4059 5.07151 8.60591 4.83316 8.26571C4.81647 8.24188 4.80479 8.22521 4.79827 8.21655L4.79667 8.21442C4.69132 8.07454 3.98547 7.13727 3.98547 6.16723C3.98547 5.25472 4.43587 4.77642 4.64319 4.55626C4.6574 4.54117 4.67046 4.5273 4.68216 4.51458C4.86461 4.31625 5.08028 4.26667 5.21298 4.26667C5.34566 4.26667 5.47851 4.26789 5.59449 4.27368C5.6088 4.2744 5.62368 4.27431 5.63907 4.27422C5.75507 4.27355 5.89969 4.2727 6.04236 4.61375C6.09724 4.745 6.17755 4.93958 6.26225 5.1448C6.43354 5.55981 6.62279 6.01834 6.65608 6.0847C6.70586 6.18386 6.73903 6.29951 6.67268 6.43178C6.66272 6.45161 6.65351 6.47033 6.6447 6.48821C6.59487 6.58947 6.55821 6.66395 6.47363 6.76223C6.44037 6.80088 6.40599 6.84254 6.37162 6.8842C6.30314 6.96721 6.23466 7.0502 6.17503 7.10932C6.07538 7.2081 5.97165 7.31528 6.08776 7.51361C6.20388 7.71194 6.60337 8.36065 7.19513 8.88596C7.83125 9.45064 8.38411 9.6893 8.66435 9.81027C8.71907 9.8339 8.7634 9.85303 8.79592 9.86923C8.9949 9.96843 9.11103 9.95183 9.22715 9.81966C9.34327 9.68744 9.72475 9.24117 9.85743 9.04288C9.99011 8.84462 10.1229 8.87764 10.3053 8.94372C10.4878 9.0099 11.4664 9.48909 11.6655 9.58825C11.7044 9.60761 11.7407 9.62509 11.7744 9.64128Z" fill="#252525"/>
</svg>
