<svg width="107" height="30" viewBox="0 0 107 30" fill="none" xmlns="http://www.w3.org/2000/svg">
<g clip-path="url(#clip0_135_2)">
<path d="M26.4736 11.2293L24.7603 22.0183C24.6498 22.5137 24.3734 22.7889 23.876 22.7889C23.6549 22.7889 23.4891 22.7339 23.3786 22.5687C23.268 22.4036 23.2128 22.2385 23.268 21.9632L24.9814 11.1743C25.0919 10.6788 25.3683 10.4036 25.8657 10.4036C26.0867 10.4036 26.2526 10.4587 26.3631 10.6238C26.5289 10.7889 26.5289 10.9541 26.4736 11.2293ZM26.1973 8.14673C23.4891 8.14673 21.8311 9.1926 21.3889 11.6146L19.7861 21.688C19.5098 23.9449 21.002 25.1009 23.5997 25.1009C26.3078 25.1009 27.9659 24.11 28.3528 21.688L29.9555 11.7247C30.3424 9.30269 28.9054 8.14673 26.1973 8.14673Z" fill="#ED1C24"/>
<path d="M69.4727 24.9358L72.7335 4.23853H69.1411L65.825 24.9358H69.4727Z" fill="#ED1C24"/>
<path d="M38.4117 8.25687V8.14678C37.1405 7.98165 35.7035 8.25687 34.8192 9.35779L34.156 8.31192H32.0006L29.3477 24.9908H32.9401L34.9298 12.6055C35.2061 10.8991 36.8089 11.1193 37.9143 11.3945L38.4117 8.25687ZM39.9592 4.23853L36.6431 24.9358H40.2356L43.5517 4.23853H39.9592Z" fill="#ED1C24"/>
<path d="M49.0232 11.2294L47.3099 22.0183C47.1993 22.5138 46.923 22.789 46.4256 22.789C46.2045 22.789 46.0387 22.7339 45.9282 22.5688C45.8176 22.4037 45.7623 22.2385 45.8176 21.9633L47.5309 11.2294C47.6415 10.7339 47.9178 10.4587 48.4152 10.4587C48.6363 10.4587 48.8021 10.5138 48.9127 10.6789C49.0232 10.789 49.0785 11.0092 49.0232 11.2294ZM50.0733 4.23853L49.3548 8.86238C48.8574 8.36697 48.1389 8.14678 47.1993 8.14678C45.2649 8.14678 44.3254 9.13761 44.049 11.0642L42.2804 22.2385C41.9488 24.1651 42.9989 25.156 44.9333 25.156C46.1492 25.156 47.0335 24.7706 47.6968 23.9449L48.3047 24.9908H50.4602L53.7763 4.29357H50.0733V4.23853Z" fill="#ED1C24"/>
<path d="M87.9875 8.0918C85.2241 8.0918 83.6213 9.02758 83.1792 11.5597L82.9581 12.6606C82.6818 14.2019 83.0134 15.523 84.2293 16.5138L86.3295 18.3854C86.7164 18.7157 86.8822 19.156 86.8269 19.5964L86.44 21.9634C86.3295 22.4588 86.0531 22.734 85.5557 22.734C85.3347 22.734 85.1688 22.679 85.0583 22.5138C84.9478 22.3487 84.8925 22.1835 84.9478 21.9083L85.3899 18.9909H81.9633L81.5211 21.578C81.1895 23.89 82.737 25.0459 85.2241 25.0459C88.1534 25.0459 89.6456 24.0551 90.0878 21.6331L90.3641 20.1468C90.6404 18.6056 90.4194 17.1193 89.2035 16.1835L86.9927 14.2569C86.5506 13.9267 86.3848 13.5413 86.4953 12.9909L86.7716 11.1744C86.8822 10.679 87.1585 10.4037 87.6559 10.4037C87.877 10.4037 88.0428 10.4588 88.1534 10.6239C88.2639 10.789 88.3192 10.9542 88.2639 11.2294L87.877 13.6514H91.4142L91.7458 11.7248C92.1327 9.63308 91.0826 8.0918 87.9875 8.0918Z" fill="#ED1C24"/>
<path d="M98.0465 8.0918C95.2831 8.0918 93.6803 9.02758 93.2381 11.5597L93.0171 12.6606C92.7407 14.2019 93.0723 15.523 94.2882 16.5138L96.3884 18.3854C96.7753 18.7157 96.9411 19.156 96.8859 19.5964L96.499 21.9634C96.3885 22.4588 96.1121 22.734 95.6147 22.734C95.3936 22.734 95.2278 22.679 95.1173 22.5138C95.0067 22.3487 94.9515 22.1835 95.0067 21.9083L95.4489 18.9909H92.0222L91.5801 21.578C91.2485 23.89 92.796 25.0459 95.2831 25.0459C98.2123 25.0459 99.7046 24.0551 100.147 21.6331L100.423 20.1468C100.699 18.6056 100.478 17.1193 99.2624 16.1835L97.0517 14.2569C96.6095 13.9267 96.4437 13.5413 96.5543 12.9909L96.8306 11.1744C96.9411 10.679 97.2175 10.4037 97.7149 10.4037C97.936 10.4037 98.1018 10.4588 98.2123 10.6239C98.3228 10.789 98.3781 10.9542 98.3228 11.2294L97.936 13.6514H101.473L101.805 11.7248C102.192 9.63308 101.142 8.0918 98.0465 8.0918Z" fill="#ED1C24"/>
<path d="M76.4365 22.0183C76.3259 22.5137 76.0496 22.7889 75.5522 22.7889C75.3311 22.7889 75.1653 22.7339 75.0547 22.5687C74.9442 22.4587 74.9442 22.2935 74.9442 22.1284C74.9442 22.0733 74.9442 22.0183 74.9442 21.9632L75.3864 19.0458C75.4969 18.4403 75.7732 18.055 76.3259 17.7247L77.155 17.2843L76.4365 22.0183ZM77.9287 8.14673C75.2205 8.14673 73.5072 9.1926 73.0651 11.6146L72.7335 13.7064H76.3259L76.7128 11.2293C76.8233 10.7339 77.0997 10.4587 77.5971 10.4587C77.8182 10.4587 77.984 10.5137 78.0945 10.6788C78.2051 10.844 78.2603 11.0091 78.2051 11.2843L77.7076 14.477L74.3915 16.2385C72.844 17.0642 72.0702 18.11 71.7939 19.8165L71.407 22.2385C71.0754 24.1651 72.1255 25.1559 74.0599 25.1559C75.2758 25.1559 76.1601 24.7706 76.8233 23.9449L77.4313 24.9908H79.5868L81.687 11.7247C82.0739 9.24765 80.4158 8.14673 77.9287 8.14673Z" fill="#ED1C24"/>
<path d="M63.172 4.07349C60.4638 4.07349 58.5847 5.1744 58.1978 7.59642L55.9871 21.4129C55.6002 23.7799 56.9819 25.101 60.1322 25.101C62.7298 25.101 64.4984 24.0001 64.9406 21.5781L65.7696 16.734H62.1219V16.7891L61.2928 21.9634C61.2376 22.5139 60.906 22.7891 60.4085 22.7891C60.1875 22.7891 59.9664 22.734 59.8559 22.5689C59.7453 22.4038 59.69 22.1836 59.7453 21.9083L62.1219 7.2111C62.2324 6.66064 62.5087 6.38541 63.0062 6.38541C63.2272 6.38541 63.4483 6.44046 63.5589 6.6056C63.6694 6.77073 63.7247 6.99092 63.6694 7.26615L62.9509 11.5597H66.5986L67.2066 7.76156C67.4829 5.22945 65.8801 4.07349 63.172 4.07349Z" fill="#ED1C24"/>
<path d="M104.292 12.2202L102.689 22.2385C102.302 24.5505 101.749 27.4679 96.2779 27.4679H60.077C57.4241 27.4679 55.6002 26.9174 54.5501 25.5963C53.5553 24.3853 53.2789 23.1743 53.2789 23.1743L52.5604 27.5229H23.5997C20.8363 27.5229 19.2887 26.7523 18.515 25.8716C18.515 25.8716 18.515 25.8165 18.4597 25.8165L17.9623 27.5229H1.60279V1.59633H25.8104L24.5393 5.66972H37.0852L37.7484 1.59633H56.7056L56.1529 5.50459L57.0925 4.40367C58.64 2.58716 60.8507 1.59633 63.172 1.59633H75.7732L75.11 5.88991L75.718 5.77982C76.3812 5.61468 77.1549 5.55963 77.9287 5.55963C79.8078 5.55963 81.3554 6.05505 82.516 6.99082L82.7923 7.21101L83.0687 6.99082C84.3399 6.05505 85.9979 5.55963 88.0429 5.55963C89.9773 5.55963 91.5248 6 92.6302 6.93578L92.8512 7.15596L93.1276 6.93578C94.3435 6 96.0568 5.55963 98.1017 5.55963C100.478 5.55963 102.192 6.22018 103.352 7.59633C104.015 8.42202 104.734 9.90826 104.292 12.2202ZM0 29.0642H19.1229L19.344 28.4037C20.3941 28.9541 21.7758 29.0642 23.5997 29.0642H53.9974L54.2737 27.4679C55.6555 28.5688 57.5346 29.0642 60.1322 29.0642H96.3331C103.186 29.0642 103.96 24.8257 104.347 22.5138L105.95 12.4954C106.503 9.57798 105.508 7.65138 104.568 6.55046C103.131 4.78899 100.92 3.9633 98.1017 3.90826C96.0568 3.90826 94.3435 4.34862 92.9065 5.11927C91.58 4.29358 89.9773 3.90826 88.0429 3.90826C85.9979 3.90826 84.2293 4.34862 82.7923 5.17431C81.4659 4.34862 79.8631 3.90826 77.9287 3.90826C77.6524 3.90826 77.3207 3.90826 77.0444 3.9633L77.6524 0H66.5986H63.172C61.5139 0 59.8559 0.440367 58.4189 1.26605L58.5847 0H36.422L35.7588 4.07339H26.75L27.9659 0H0V29.0642Z" fill="#ED1C24"/>
<path d="M104.292 12.2202L102.689 22.2385C102.302 24.5505 101.749 27.4679 96.2779 27.4679H60.077C57.4241 27.4679 55.6002 26.9174 54.5501 25.5963C53.5553 24.3853 53.2789 23.1743 53.2789 23.1743L52.5604 27.5229H23.5997C20.8363 27.5229 19.2887 26.7523 18.515 25.8716C18.515 25.8716 18.515 25.8165 18.4597 25.8165L17.9623 27.5229H1.60279V1.59633H25.8104L24.5393 5.66972H37.0852L37.7484 1.59633H56.7056L56.1529 5.50459L57.0925 4.40367C58.64 2.58716 60.8507 1.59633 63.172 1.59633H75.7732L75.11 5.88991L75.718 5.77982C76.3812 5.61468 77.1549 5.55963 77.9287 5.55963C79.8078 5.55963 81.3554 6.05505 82.516 6.99082L82.7923 7.21101L83.0687 6.99082C84.3399 6.05505 85.9979 5.55963 88.0429 5.55963C89.9773 5.55963 91.5248 6 92.6302 6.93578L92.8512 7.15596L93.1276 6.93578C94.3435 6 96.0568 5.55963 98.1017 5.55963C100.478 5.55963 102.192 6.22018 103.352 7.59633C104.015 8.42202 104.734 9.90826 104.292 12.2202ZM0 29.0642H19.1229L19.344 28.4037C20.3941 28.9541 21.7758 29.0642 23.5997 29.0642H53.9974L54.2737 27.4679C55.6555 28.5688 57.5346 29.0642 60.1322 29.0642H96.3331C103.186 29.0642 103.96 24.8257 104.347 22.5138L105.95 12.4954C106.503 9.57798 105.508 7.65138 104.568 6.55046C103.131 4.78899 100.92 3.9633 98.1017 3.90826C96.0568 3.90826 94.3435 4.34862 92.9065 5.11927C91.58 4.29358 89.9773 3.90826 88.0429 3.90826C85.9979 3.90826 84.2293 4.34862 82.7923 5.17431C81.4659 4.34862 79.8631 3.90826 77.9287 3.90826C77.6524 3.90826 77.3207 3.90826 77.0444 3.9633L77.6524 0H66.5986H63.172C61.5139 0 59.8559 0.440367 58.4189 1.26605L58.5847 0H36.422L35.7588 4.07339H26.75L27.9659 0H0V29.0642Z" fill="#ED1C24"/>
<path d="M15.8068 24.8808L22.1627 4.18359H18.5703L15.2542 14.6423H15.0331L15.0884 4.18359H11.109L7.9587 14.6974H7.73763V4.18359H4.20044V24.8808H8.01397L11.5512 12.9909H11.7722L11.9933 24.8808H15.8068Z" fill="#ED1C24"/>
</g>
<defs>
<clipPath id="clip0_135_2">
<rect width="107" height="30" fill="white"/>
</clipPath>
</defs>
</svg>
