<svg width="105" height="30" viewBox="0 0 105 30" fill="none" xmlns="http://www.w3.org/2000/svg">
<g clip-path="url(#clip0_7_275)">
<path fill-rule="evenodd" clip-rule="evenodd" d="M25.3488 6.83471L14.3295 0.410462C13.9336 0.18219 13.4387 0.18219 13.0428 0.410462L12.0201 1.00832C11.8001 1.12789 11.7671 1.43225 11.9321 1.60618L13.9116 3.70411C14.0326 3.83455 13.9116 4.05196 13.7356 3.99761L9.54566 2.71493C9.34771 2.66058 9.13876 2.68232 8.96281 2.78015L7.30221 3.74759C6.90631 3.97587 6.81833 4.51937 7.11526 4.87809L8.86383 6.9108C8.9628 7.03037 8.85283 7.2043 8.69887 7.16081L4.56389 5.82379C4.23397 5.71509 3.87106 5.75857 3.57413 5.93249L1.70459 7.0195C1.46265 7.16081 1.46265 7.50866 1.70459 7.64997L9.97456 12.4763C11.9871 13.6503 13.2847 15.3786 13.5707 17.8679C13.8566 15.4004 15.1433 13.6829 17.1228 12.5089L17.9916 11.9763C18.2995 11.7915 18.3545 11.3567 18.1016 11.0958L14.8794 7.75867C14.7914 7.66084 14.8904 7.51953 15.0113 7.56301L20.6529 9.95444C21.0268 10.1175 21.4667 10.0849 21.8186 9.87835L25.3488 7.81302C25.7227 7.60649 25.7227 7.06298 25.3488 6.83471Z" fill="#252525"/>
<path fill-rule="evenodd" clip-rule="evenodd" d="M12.5149 21.3682C12.5149 18.1615 10.8104 15.1722 8.05003 13.5634L0.945784 9.4219C0.890798 9.38929 0.846808 9.37842 0.791821 9.37842C0.637859 9.37842 0.4729 9.49799 0.4729 9.70452V23.0096C0.4729 23.1291 0.538883 23.227 0.626862 23.2922L11.9321 29.8904C12.163 30.0208 12.5039 29.8795 12.5039 29.5534V21.3682H12.5149ZM6.45543 16.357C8.22599 17.3897 9.32572 19.3137 9.32572 21.3682V23.3574C9.32572 23.6183 9.19376 23.8574 8.96281 23.9879C8.85284 24.0531 8.72087 24.0857 8.5999 24.0857C8.47893 24.0857 8.34696 24.0531 8.23699 23.9879L3.94805 21.4877C3.77209 21.3899 3.67311 21.2051 3.67311 20.9986V14.7265L6.45543 16.357Z" fill="#252525"/>
<path fill-rule="evenodd" clip-rule="evenodd" d="M17.5627 21.3682C17.5627 19.3028 18.6624 17.3788 20.433 16.357L22.8744 14.9331L26.2395 13.2808C26.3495 13.2264 26.4155 13.1177 26.4155 12.9873V9.70452C26.4155 9.58495 26.3605 9.48712 26.2615 9.4219C26.2066 9.38929 26.1516 9.37842 26.1076 9.37842C26.0526 9.37842 25.9976 9.38929 25.9536 9.4219L18.8494 13.5634C16.1 15.1722 14.3845 18.1615 14.3845 21.3682V29.5425C14.3845 29.6838 14.4614 29.8034 14.5714 29.8795C14.6924 29.9447 14.8354 29.9447 14.9563 29.8795L26.2615 23.2813C26.3605 23.227 26.4155 23.1183 26.4155 22.9987V20.1398C26.4155 20.0203 26.3605 19.9224 26.2615 19.8681C26.1626 19.8137 26.0526 19.8029 25.9536 19.8572L23.1053 21.3899L18.3985 24.1292C18.2225 24.227 18.0136 24.227 17.8376 24.1292C17.6617 24.0314 17.5627 23.8466 17.5627 23.64V21.3682Z" fill="#252525"/>
<path fill-rule="evenodd" clip-rule="evenodd" d="M38.5384 17.408C37.8896 15.397 37.1308 13.1252 36.251 10.5815C36.4049 10.6033 36.5809 10.625 36.7678 10.625C36.8668 10.625 36.9768 10.625 37.0758 10.625C37.1747 10.6033 37.2407 10.5924 37.2737 10.5924C37.5597 11.6033 37.8456 12.5599 38.1315 13.4621C38.4174 14.3752 38.7474 15.3753 39.1213 16.4623C39.8251 14.6687 40.4959 12.7121 41.1228 10.5924C41.2218 10.6142 41.3427 10.625 41.4637 10.625C41.5297 10.625 41.5957 10.625 41.6616 10.625C41.7276 10.6033 41.7716 10.5924 41.8046 10.5924C42.0136 11.2229 42.2225 11.8425 42.4425 12.4512C42.7614 13.3534 42.9813 14.0056 43.1243 14.397C43.3332 14.9622 43.5752 15.6253 43.8611 16.3645C44.224 15.397 44.5539 14.4622 44.8509 13.5382C45.1478 12.6251 45.4337 11.6359 45.7306 10.5924C45.8296 10.6142 45.9506 10.625 46.0716 10.625C46.1375 10.625 46.2035 10.625 46.2805 10.625C46.3575 10.6033 46.4015 10.5924 46.4345 10.5924L43.9931 17.4189C43.8831 17.3862 43.7511 17.3645 43.6192 17.3645C43.4542 17.3645 43.3332 17.3862 43.2343 17.4189C42.6514 15.5927 42.0026 13.7339 41.2657 11.8425C40.8808 12.9404 40.5729 13.7991 40.353 14.4078C40.133 15.0166 39.9131 15.6362 39.6931 16.2558C39.5392 16.6688 39.3962 17.0601 39.2642 17.4189C39.1543 17.3862 39.0333 17.3645 38.8903 17.3645C38.8353 17.3645 38.7804 17.3645 38.7364 17.3645C38.7144 17.3536 38.6484 17.3645 38.5384 17.408Z" fill="#252525"/>
<path fill-rule="evenodd" clip-rule="evenodd" d="M48.458 13.9838V14.4729C48.458 14.6903 48.469 15.1143 48.491 15.7447C48.513 16.3752 48.524 16.7665 48.524 16.9296H48.7439C49.0409 16.9296 49.4368 16.9187 49.9206 16.897C50.4155 16.8752 50.8774 16.8535 51.3063 16.81L51.2953 17.1144L51.3063 17.4296C51.1743 17.4187 50.9214 17.4079 50.5475 17.397C50.1736 17.3861 49.8217 17.3861 49.4808 17.3861H47.5452C47.5672 17.1687 47.5782 16.7013 47.6002 15.973C47.6112 15.2556 47.6222 14.5708 47.6222 13.9294C47.6222 12.5815 47.6222 11.7663 47.6112 11.4945C47.6002 11.2119 47.5892 10.9075 47.5562 10.5706C47.7212 10.5706 47.9631 10.5814 48.293 10.5923C48.623 10.614 48.8429 10.614 48.9639 10.614C49.2168 10.614 49.6457 10.6032 50.2616 10.5923C50.8664 10.5706 51.2293 10.5706 51.3393 10.5706L51.3173 10.9075L51.3393 11.2336C50.8114 11.1358 49.9536 11.0815 48.7659 11.0815H48.48C48.48 11.2336 48.48 11.4293 48.469 11.6467C48.458 11.8641 48.458 12.0706 48.447 12.2663V13.5598H49.2938C49.4368 13.5598 49.7337 13.549 50.1736 13.5272C50.6135 13.5055 50.9214 13.4946 51.1194 13.4946L51.0974 13.7772L51.1194 14.0599C50.4925 14.0055 49.8767 13.9729 49.2938 13.9729H48.458V13.9838Z" fill="#252525"/>
<path fill-rule="evenodd" clip-rule="evenodd" d="M52.285 16.9947C52.373 16.7339 52.428 16.5708 52.45 16.4839C52.494 16.2991 52.516 16.1251 52.516 15.9403C52.6809 16.3208 52.9119 16.6034 53.2198 16.81C53.5277 17.0165 53.8796 17.1252 54.2755 17.1252C54.7264 17.1252 55.1003 16.9947 55.3863 16.7339C55.6722 16.473 55.8042 16.1143 55.8042 15.6577C55.8042 15.3425 55.7162 15.0816 55.5512 14.8968C55.3863 14.712 55.1113 14.549 54.7264 14.3968L53.8576 14.0598C53.3738 13.875 53.0219 13.6576 52.7909 13.3859C52.56 13.125 52.439 12.788 52.439 12.3858C52.439 11.8206 52.6479 11.364 53.0658 10.9944C53.4837 10.6357 54.0226 10.4509 54.6824 10.4509C55.2653 10.4509 55.8042 10.5814 56.299 10.8314C56.1891 11.0597 56.0901 11.3205 56.0021 11.6032C55.6282 11.0923 55.1333 10.8314 54.5285 10.8314C54.1436 10.8314 53.8247 10.951 53.5937 11.1792C53.3628 11.4075 53.2418 11.7119 53.2418 12.0923C53.2418 12.3858 53.3188 12.625 53.4837 12.7989C53.6487 12.9728 53.9236 13.1467 54.3085 13.2989L55.1773 13.6467C55.6832 13.8424 56.0571 14.0707 56.2661 14.3316C56.486 14.5816 56.596 14.9294 56.596 15.3642C56.596 16.0056 56.365 16.5273 55.9031 16.9295C55.4413 17.3317 54.8254 17.5274 54.0556 17.5274C53.3738 17.5165 52.7799 17.3426 52.285 16.9947Z" fill="#252525"/>
<path fill-rule="evenodd" clip-rule="evenodd" d="M60.4011 11.0489V14.0055C60.4011 14.5164 60.4011 15.0925 60.4011 15.7556C60.4011 16.4187 60.4231 16.9622 60.4671 17.3861C60.3241 17.3644 60.1591 17.3427 59.9722 17.3427C59.7852 17.3427 59.6313 17.3535 59.4773 17.3753C59.4993 17.1579 59.5103 16.7013 59.5323 15.9948C59.5433 15.2991 59.5543 14.6251 59.5543 13.9838V11.0271H59.2463C58.4325 11.0271 57.7727 11.0706 57.2778 11.1467L57.2998 10.8641L57.2778 10.5488C57.5088 10.5488 58.0037 10.5597 58.7625 10.5706C59.5213 10.5814 59.9282 10.5923 59.9722 10.5923C60.2911 10.5923 60.698 10.5923 61.1709 10.5814C61.6438 10.5706 62.1496 10.5706 62.6665 10.5488L62.6335 10.8423C62.6335 10.9728 62.6445 11.0706 62.6665 11.1467C62.4246 11.1032 62.1386 11.0706 61.8197 11.0489C61.4898 11.0271 61.1489 11.0162 60.786 11.0162H60.4011V11.0489Z" fill="#252525"/>
<path fill-rule="evenodd" clip-rule="evenodd" d="M67.5493 16.9622C67.7253 16.9622 67.9562 16.9731 68.2311 16.9839C68.5061 16.9948 68.649 17.0057 68.671 17.0057C71.0025 17.0057 72.1792 15.9948 72.1792 13.9729C72.1792 12.8968 71.9482 12.125 71.4643 11.6576C70.9915 11.1902 70.2217 10.951 69.1549 10.951C69.001 10.951 68.737 10.9619 68.3741 10.9836C68.0002 11.0054 67.7253 11.0162 67.5493 11.0162C67.5383 11.3532 67.5273 11.788 67.5273 12.3315C67.5273 12.875 67.5273 13.3424 67.5273 13.7555C67.5273 14.1686 67.5273 14.6577 67.5383 15.223C67.5273 15.7774 67.5383 16.3643 67.5493 16.9622ZM66.5925 10.5706C66.6695 10.5706 66.8125 10.5814 67.0104 10.5923C67.2084 10.6032 67.3404 10.614 67.3843 10.614C67.5163 10.614 67.8572 10.6032 68.4071 10.5923C68.968 10.5814 69.4408 10.5706 69.8367 10.5706C70.9145 10.5706 71.7503 10.8532 72.3331 11.4076C72.916 11.9728 73.2019 12.7555 73.2019 13.7772C73.2019 14.9512 72.85 15.8534 72.1242 16.4839C71.4094 17.1035 70.3646 17.4187 68.99 17.4187C68.792 17.4187 68.4841 17.4079 68.0772 17.397C67.6703 17.3861 67.4503 17.3753 67.4283 17.3753C67.2744 17.3753 67.1424 17.3753 67.0324 17.3753C66.9225 17.3753 66.7685 17.3861 66.5815 17.4079C66.6035 17.1905 66.6145 16.7122 66.6365 15.9948C66.6475 15.2665 66.6585 14.5816 66.6585 13.9403C66.6585 13.4294 66.6585 12.8533 66.6585 12.1902C66.6585 11.538 66.6365 10.9945 66.5925 10.5706Z" fill="#252525"/>
<path fill-rule="evenodd" clip-rule="evenodd" d="M75.5993 13.9838V14.4729C75.5993 14.6903 75.6103 15.1143 75.6323 15.7447C75.6543 16.3752 75.6653 16.7665 75.6653 16.9296H75.8852C76.1822 16.9296 76.5781 16.9187 77.0619 16.897C77.5568 16.8752 78.0187 16.8535 78.4476 16.81L78.4366 17.1144L78.4476 17.4296C78.3156 17.4187 78.0627 17.4079 77.6888 17.397C77.3149 17.3861 76.963 17.3861 76.622 17.3861H74.6865C74.7085 17.1687 74.7195 16.7013 74.7415 15.973C74.7525 15.2556 74.7635 14.5708 74.7635 13.9294C74.7635 12.5815 74.7635 11.7663 74.7525 11.4945C74.7415 11.2119 74.7305 10.9075 74.6975 10.5706C74.8625 10.5706 75.1044 10.5814 75.4343 10.5923C75.7643 10.614 75.9842 10.614 76.1052 10.614C76.3581 10.614 76.787 10.6032 77.4028 10.5923C78.0077 10.5706 78.3706 10.5706 78.4806 10.5706L78.4586 10.9075L78.4806 11.2336C77.9527 11.1358 77.0949 11.0815 75.9072 11.0815H75.6543C75.6543 11.2336 75.6543 11.4293 75.6433 11.6467C75.6323 11.8641 75.6323 12.0706 75.6213 12.2663V13.5598H76.4681C76.611 13.5598 76.908 13.549 77.3479 13.5272C77.7878 13.5055 78.0957 13.4946 78.2936 13.4946L78.2716 13.7772L78.2936 14.0599C77.6668 14.0055 77.0509 13.9729 76.4681 13.9729H75.5993V13.9838Z" fill="#252525"/>
<path fill-rule="evenodd" clip-rule="evenodd" d="M79.9103 17.3862C79.9323 17.1905 79.9433 16.4622 79.9653 15.2013C79.9763 13.9404 79.9873 12.712 79.9873 11.5055V10.4402H80.1852C80.8121 11.125 81.4279 11.7663 82.0328 12.3751C82.4836 12.8316 83.0665 13.4077 83.7923 14.1143C84.4302 14.7339 84.98 15.2557 85.4309 15.6796L85.4529 14.81C85.4529 14.1252 85.4419 13.4403 85.4309 12.7447C85.4089 12.049 85.3979 11.3207 85.3869 10.5598C85.4859 10.5815 85.5959 10.5924 85.7169 10.5924C85.8378 10.5924 85.9368 10.5815 86.0248 10.5598C86.0248 11.0489 86.0138 11.8316 85.9918 12.8968C85.9698 13.9621 85.9588 14.7448 85.9588 15.2557V17.5058H85.8158C85.4969 17.1253 85.101 16.6905 84.6171 16.2014C84.1992 15.7666 83.6824 15.2448 83.0885 14.6578L80.5151 12.1251L80.4821 13.4186C80.4821 13.4403 80.5041 14.1578 80.5371 15.5926C80.5481 16.1579 80.5591 16.7557 80.5591 17.3753C80.4491 17.3536 80.3392 17.3427 80.2182 17.3427C80.1082 17.3536 79.9983 17.3645 79.9103 17.3862Z" fill="#252525"/>
<path fill-rule="evenodd" clip-rule="evenodd" d="M90.2697 11.0489V14.0055C90.2697 14.5164 90.2697 15.0925 90.2697 15.7556C90.2697 16.4187 90.2917 16.9622 90.3357 17.3861C90.1927 17.3644 90.0278 17.3427 89.8408 17.3427C89.6649 17.3427 89.4999 17.3535 89.346 17.3753C89.3679 17.1579 89.3789 16.7013 89.4009 15.9948C89.4119 15.2991 89.4229 14.6251 89.4229 13.9838V11.0271H89.115C88.3012 11.0271 87.6414 11.0706 87.1465 11.1467L87.1685 10.8641L87.1465 10.5488C87.3774 10.5488 87.8723 10.5597 88.6311 10.5706C89.3899 10.5814 89.7968 10.5923 89.8408 10.5923C90.1598 10.5923 90.5667 10.5923 91.0395 10.5814C91.5124 10.5706 92.0183 10.5706 92.5352 10.5488L92.5022 10.8423C92.5022 10.9728 92.5132 11.0706 92.5352 11.1467C92.2932 11.1032 92.0073 11.0706 91.6884 11.0489C91.3585 11.0271 91.0175 11.0162 90.6546 11.0162H90.2697V11.0489Z" fill="#252525"/>
<path fill-rule="evenodd" clip-rule="evenodd" d="M95.8233 11.8206L94.6906 14.2772L95.4934 14.299H96.923L96.7471 13.8859L95.8233 11.8206ZM92.6891 17.3861C93.8548 15.0164 94.9545 12.701 95.9883 10.4509H96.1862C96.5381 11.2553 96.8791 12.0597 97.22 12.8424C97.5279 13.538 97.8688 14.3098 98.2537 15.1577C98.6826 16.0925 99.0235 16.8426 99.2765 17.3969C99.1225 17.3752 98.9465 17.3643 98.7486 17.3643C98.6496 17.3643 98.5836 17.3643 98.5177 17.3643C98.4627 17.3643 98.3527 17.3752 98.1987 17.4078C98.0558 17.0056 97.9238 16.6469 97.7918 16.3317C97.6269 15.9186 97.4509 15.5164 97.275 15.1251L97.099 14.7229H94.4707C94.3717 14.9185 94.2287 15.2447 94.0418 15.7121C93.8108 16.2556 93.5909 16.8208 93.3709 17.4078C93.3269 17.3969 93.2829 17.3861 93.217 17.3752C93.151 17.3643 93.085 17.3643 93.019 17.3643C92.92 17.3643 92.8431 17.3752 92.7881 17.3861C92.7551 17.3861 92.7111 17.3861 92.6891 17.3861Z" fill="#252525"/>
<path fill-rule="evenodd" clip-rule="evenodd" d="M101.256 10.5706C101.234 10.788 101.223 11.2445 101.201 11.9511C101.19 12.6468 101.179 13.3207 101.179 13.962C101.179 14.1577 101.19 14.6142 101.223 15.3208C101.245 16.0274 101.267 16.56 101.267 16.9187L101.993 16.9405C102.906 16.9405 103.631 16.8861 104.17 16.7774L104.148 17.0926L104.17 17.397L101.696 17.3644C101.443 17.3644 101.19 17.3644 100.926 17.3753C100.662 17.3861 100.442 17.397 100.277 17.397C100.299 17.1796 100.31 16.7122 100.332 15.9948C100.343 15.2773 100.354 14.6034 100.354 13.962C100.354 13.4511 100.354 12.875 100.354 12.2119C100.354 11.5489 100.332 11.0054 100.288 10.5814C100.431 10.6032 100.596 10.614 100.783 10.614C100.948 10.614 101.113 10.6032 101.256 10.5706Z" fill="#252525"/>
<path d="M104.478 5.07031H35.9431V5.5486H104.478V5.07031Z" fill="#252525"/>
<path d="M104.478 22.6147H85.002V23.093H104.478V22.6147Z" fill="#252525"/>
<path d="M55.4193 22.6147H35.9431V23.093H55.4193V22.6147Z" fill="#252525"/>
<path fill-rule="evenodd" clip-rule="evenodd" d="M61.5338 25.2778C61.1599 25.5387 60.61 25.6583 59.8732 25.6583C59.0594 25.6583 58.4215 25.4409 57.9706 25.017C57.5198 24.593 57.2998 23.9952 57.2998 23.2125C57.2998 22.4733 57.5417 21.8755 58.0366 21.4298C58.5315 20.9841 59.1913 20.7559 60.0381 20.7559C60.61 20.7559 61.1379 20.8646 61.6217 21.0928C61.5448 21.3211 61.5008 21.5385 61.5008 21.745C61.1599 21.2559 60.654 21.0167 60.0051 21.0167C59.3893 21.0167 58.9164 21.2124 58.5755 21.5929C58.2346 21.9733 58.0586 22.5168 58.0586 23.2125C58.0586 23.8865 58.2346 24.4191 58.5755 24.7996C58.9164 25.18 59.3783 25.3757 59.9611 25.3757C60.522 25.3757 61.0609 25.18 61.5668 24.7996L61.5338 25.2778Z" fill="#252525"/>
<path fill-rule="evenodd" clip-rule="evenodd" d="M63.8652 20.8538C63.8542 21.0059 63.8432 21.3212 63.8322 21.8103C63.8212 22.2886 63.8212 22.756 63.8212 23.2017C63.8212 23.343 63.8322 23.6474 63.8542 24.1366C63.8762 24.6257 63.8762 24.9953 63.8762 25.2453L64.3821 25.2562C65.0089 25.2562 65.5148 25.2236 65.8887 25.1475L65.8777 25.3649L65.8887 25.5714L64.1731 25.5497C63.9972 25.5497 63.8212 25.5497 63.6342 25.5605C63.4473 25.5714 63.3043 25.5714 63.1833 25.5714C63.1943 25.4192 63.2053 25.0931 63.2163 24.604C63.2273 24.1148 63.2273 23.6474 63.2273 23.2017C63.2273 22.8539 63.2273 22.4517 63.2273 21.9951C63.2273 21.5386 63.2053 21.1581 63.1833 20.8646C63.2823 20.8864 63.4033 20.8864 63.5243 20.8864C63.6452 20.8864 63.7552 20.8755 63.8652 20.8538Z" fill="#252525"/>
<path fill-rule="evenodd" clip-rule="evenodd" d="M68.2091 20.8538C68.1981 21.0059 68.1871 21.3212 68.1761 21.8103C68.1651 22.2886 68.1651 22.756 68.1651 23.2017C68.1651 23.5604 68.1651 23.9626 68.1651 24.43C68.1651 24.8975 68.1871 25.2779 68.2091 25.5714C68.1101 25.5497 67.9892 25.5388 67.8682 25.5388C67.7472 25.5388 67.6263 25.5497 67.5273 25.5605C67.5383 25.4084 67.5493 25.0823 67.5603 24.5931C67.5713 24.1039 67.5713 23.6365 67.5713 23.1908C67.5713 22.843 67.5713 22.4408 67.5713 21.9843C67.5713 21.5277 67.5493 21.1473 67.5273 20.8538C67.6263 20.8755 67.7472 20.8755 67.8682 20.8755C67.9892 20.8864 68.1101 20.8755 68.2091 20.8538Z" fill="#252525"/>
<path fill-rule="evenodd" clip-rule="evenodd" d="M70.2216 25.5605C70.2326 25.43 70.2436 24.9191 70.2546 24.0495C70.2656 23.1799 70.2656 22.332 70.2656 21.495V20.7559H70.4086C70.8485 21.2233 71.2664 21.669 71.6843 22.0929C71.9922 22.4081 72.3991 22.8103 72.905 23.2995C73.3449 23.7234 73.7188 24.093 74.0377 24.3865L74.0487 23.7778C74.0487 23.3103 74.0377 22.8321 74.0267 22.3538C74.0157 21.8755 74.0047 21.3755 73.9937 20.8428C74.0597 20.8646 74.1367 20.8646 74.2247 20.8646C74.3126 20.8646 74.3786 20.8537 74.4446 20.8428C74.4446 21.1798 74.4336 21.7233 74.4226 22.4516C74.4116 23.1908 74.4006 23.7343 74.4006 24.0821V25.6366H74.3016C74.0817 25.3757 73.8068 25.0713 73.4768 24.7343C73.1799 24.43 72.839 24.0713 72.4211 23.6691L70.6395 21.919L70.6175 22.8103C70.6175 22.8212 70.6285 23.3212 70.6505 24.3104C70.6615 24.7017 70.6615 25.1148 70.6615 25.5496C70.5845 25.5278 70.5075 25.5279 70.4306 25.5279C70.3536 25.5387 70.2766 25.5496 70.2216 25.5605Z" fill="#252525"/>
<path fill-rule="evenodd" clip-rule="evenodd" d="M77.1279 20.8538C77.1169 21.0059 77.1059 21.3212 77.0949 21.8103C77.0839 22.2886 77.0839 22.756 77.0839 23.2017C77.0839 23.5604 77.0839 23.9626 77.0839 24.43C77.0839 24.8975 77.1059 25.2779 77.1279 25.5714C77.029 25.5497 76.908 25.5388 76.787 25.5388C76.6661 25.5388 76.5451 25.5497 76.4461 25.5605C76.4571 25.4084 76.4681 25.0823 76.4791 24.5931C76.4901 24.1039 76.4901 23.6365 76.4901 23.1908C76.4901 22.843 76.4901 22.4408 76.4901 21.9843C76.4901 21.5277 76.4681 21.1473 76.4461 20.8538C76.5451 20.8755 76.6661 20.8755 76.787 20.8755C76.908 20.8864 77.018 20.8755 77.1279 20.8538Z" fill="#252525"/>
<path fill-rule="evenodd" clip-rule="evenodd" d="M83.0225 25.2778C82.6486 25.5387 82.0987 25.6583 81.3619 25.6583C80.5481 25.6583 79.9102 25.4409 79.4594 25.017C79.0085 24.593 78.7885 23.9952 78.7885 23.2125C78.7885 22.4733 79.0305 21.8755 79.5253 21.4298C80.0202 20.9841 80.6801 20.7559 81.5268 20.7559C82.0987 20.7559 82.6266 20.8646 83.1105 21.0928C83.0335 21.3211 82.9895 21.5385 82.9895 21.745C82.6486 21.2559 82.1427 21.0167 81.4939 21.0167C80.878 21.0167 80.4051 21.2124 80.0642 21.5929C79.7233 21.9733 79.5473 22.5168 79.5473 23.2125C79.5473 23.8865 79.7123 24.4191 80.0642 24.7996C80.4051 25.18 80.867 25.3757 81.4499 25.3757C82.0107 25.3757 82.5496 25.18 83.0555 24.7996L83.0225 25.2778Z" fill="#252525"/>
</g>
<defs>
<clipPath id="clip0_7_275">
<rect width="104.516" height="30" fill="white"/>
</clipPath>
</defs>
</svg>
