<svg width="106" height="32" viewBox="0 0 106 32" fill="none" xmlns="http://www.w3.org/2000/svg">
<path fill-rule="evenodd" clip-rule="evenodd" d="M3.99901 19.1763C2.99926 16.0506 1.83007 12.5195 0.474487 8.56592C0.711714 8.59971 0.982831 8.6335 1.27089 8.6335C1.4234 8.6335 1.59284 8.6335 1.74535 8.6335C1.89785 8.59971 1.99952 8.58281 2.05035 8.58281C2.49092 10.1541 2.93148 11.6409 3.37205 13.0432C3.81261 14.4624 4.32096 16.0168 4.89708 17.7064C5.98155 14.9186 7.01518 11.8774 7.98103 8.58281C8.13354 8.61661 8.31993 8.6335 8.50632 8.6335C8.60799 8.6335 8.70966 8.6335 8.81133 8.6335C8.913 8.59971 8.98078 8.58281 9.03161 8.58281C9.35356 9.56275 9.67551 10.5258 10.0144 11.4719C10.5058 12.8743 10.8447 13.888 11.065 14.4962C11.3869 15.3748 11.7597 16.4054 12.2003 17.5543C12.7595 16.0506 13.2678 14.5976 13.7253 13.1615C14.1828 11.7423 14.6234 10.2048 15.0809 8.58281C15.2334 8.61661 15.4198 8.6335 15.6062 8.6335C15.7079 8.6335 15.8095 8.6335 15.9281 8.6335C16.0468 8.59971 16.1145 8.58281 16.1654 8.58281L12.4036 19.1932C12.2342 19.1425 12.0308 19.1087 11.8275 19.1087C11.5733 19.1087 11.3869 19.1425 11.2344 19.1932C10.3364 16.3547 9.33662 13.4656 8.20132 10.5258C7.60825 12.2322 7.13379 13.567 6.7949 14.5131C6.456 15.4593 6.11711 16.4223 5.77821 17.3853C5.54098 18.0274 5.3207 18.6356 5.11736 19.1932C4.94791 19.1425 4.76152 19.1087 4.54124 19.1087C4.45652 19.1087 4.37179 19.1087 4.30401 19.1087C4.27012 19.0918 4.16845 19.1087 3.99901 19.1763Z" fill="#252525"/>
<path fill-rule="evenodd" clip-rule="evenodd" d="M19.2832 13.8543V14.6146C19.2832 14.9525 19.3001 15.6114 19.334 16.5913C19.3679 17.5713 19.3849 18.1795 19.3849 18.4329H19.7238C20.1813 18.4329 20.7913 18.416 21.5369 18.3822C22.2994 18.3485 23.0111 18.3147 23.6719 18.2471L23.655 18.7202L23.6719 19.2101C23.4686 19.1932 23.0788 19.1763 22.5027 19.1594C21.9266 19.1425 21.3844 19.1425 20.8591 19.1425H17.8768C17.9107 18.8046 17.9276 18.0781 17.9615 16.9461C17.9784 15.831 17.9954 14.7666 17.9954 13.7698C17.9954 11.6747 17.9954 10.4076 17.9784 9.98519C17.9615 9.54591 17.9445 9.07283 17.8937 8.54907C18.1479 8.54907 18.5207 8.56597 19.029 8.58287C19.5374 8.61666 19.8763 8.61666 20.0627 8.61666C20.4524 8.61666 21.1132 8.59976 22.0621 8.58287C22.9941 8.54907 23.5533 8.54907 23.7227 8.54907L23.6889 9.07283L23.7227 9.5797C22.9094 9.42764 21.5877 9.34316 19.7576 9.34316H19.3171C19.3171 9.5797 19.3171 9.88382 19.3001 10.2217C19.2832 10.5596 19.2832 10.8807 19.2662 11.1848V13.1953H20.571C20.7913 13.1953 21.2488 13.1784 21.9266 13.1446C22.6044 13.1109 23.0788 13.094 23.3838 13.094L23.35 13.5332L23.3838 13.9725C22.418 13.888 21.4691 13.8374 20.571 13.8374H19.2832V13.8543Z" fill="#252525"/>
<path fill-rule="evenodd" clip-rule="evenodd" d="M25.18 18.5343C25.3156 18.1289 25.4003 17.8754 25.4342 17.7403C25.5019 17.453 25.5358 17.1827 25.5358 16.8955C25.79 17.4868 26.1458 17.9261 26.6203 18.2471C27.0948 18.5681 27.637 18.7371 28.247 18.7371C28.9417 18.7371 29.5179 18.5343 29.9584 18.1289C30.399 17.7234 30.6023 17.1658 30.6023 16.4562C30.6023 15.9662 30.4668 15.5607 30.2126 15.2735C29.9584 14.9863 29.5348 14.7329 28.9417 14.4963L27.6031 13.9726C26.8575 13.6853 26.3153 13.3474 25.9595 12.9251C25.6036 12.5196 25.4172 11.9958 25.4172 11.3707C25.4172 10.4921 25.7392 9.7825 26.3831 9.20805C27.027 8.6505 27.8573 8.36328 28.874 8.36328C29.772 8.36328 30.6023 8.56603 31.3648 8.95462C31.1954 9.30943 31.0429 9.71491 30.9073 10.1542C30.3312 9.36011 29.5687 8.95462 28.6367 8.95462C28.0437 8.95462 27.5523 9.14047 27.1964 9.49527C26.8406 9.85008 26.6542 10.3232 26.6542 10.9145C26.6542 11.3707 26.7728 11.7424 27.027 12.0127C27.2811 12.283 27.7048 12.5534 28.2978 12.7899L29.6365 13.3305C30.4159 13.6347 30.992 13.9895 31.314 14.395C31.6529 14.7836 31.8223 15.3242 31.8223 16C31.8223 16.9969 31.4665 17.8078 30.7548 18.433C30.0431 19.0581 29.0942 19.3622 27.9081 19.3622C26.8575 19.3453 25.9425 19.075 25.18 18.5343Z" fill="#252525"/>
<path fill-rule="evenodd" clip-rule="evenodd" d="M37.6853 9.29257V13.8881C37.6853 14.6822 37.6853 15.5777 37.6853 16.6083C37.6853 17.6389 37.7191 18.4837 37.7869 19.1426C37.5666 19.1088 37.3125 19.0751 37.0244 19.0751C36.7363 19.0751 36.4991 19.092 36.2619 19.1257C36.2958 18.7878 36.3127 18.0782 36.3466 16.98C36.3636 15.8987 36.3805 14.8512 36.3805 13.8544V9.25878H35.906C34.6521 9.25878 33.6354 9.32636 32.8729 9.44463L32.9068 9.00535L32.8729 8.51538C33.2288 8.51538 33.9913 8.53227 35.1605 8.54917C36.3297 8.56606 36.9566 8.58296 37.0244 8.58296C37.5158 8.58296 38.1428 8.58296 38.8714 8.56607C39.6 8.54917 40.3795 8.54917 41.1759 8.51538L41.125 8.97156C41.125 9.1743 41.142 9.32636 41.1759 9.44463C40.8031 9.37705 40.3625 9.32637 39.8711 9.29257C39.3628 9.25878 38.8375 9.24188 38.2783 9.24188H37.6853V9.29257Z" fill="#252525"/>
<path fill-rule="evenodd" clip-rule="evenodd" d="M48.6994 18.4836C48.9705 18.4836 49.3264 18.5005 49.75 18.5174C50.1736 18.5343 50.3939 18.5512 50.4278 18.5512C54.0201 18.5512 55.8332 16.9799 55.8332 13.8374C55.8332 12.1647 55.4773 10.9651 54.7318 10.2386C54.0031 9.51211 52.817 9.14041 51.1733 9.14041C50.9361 9.14041 50.5294 9.15731 49.9703 9.1911C49.3941 9.22489 48.9705 9.24179 48.6994 9.24179C48.6824 9.76555 48.6655 10.4414 48.6655 11.2861C48.6655 12.1309 48.6655 12.8574 48.6655 13.4994C48.6655 14.1415 48.6655 14.9018 48.6824 15.7803C48.6655 16.642 48.6824 17.5544 48.6994 18.4836ZM47.2252 8.54907C47.3438 8.54907 47.5641 8.56597 47.8691 8.58287C48.1741 8.59976 48.3774 8.61666 48.4452 8.61666C48.6486 8.61666 49.1739 8.59976 50.0211 8.58287C50.8853 8.56597 51.6139 8.54907 52.2239 8.54907C53.8845 8.54907 55.1723 8.98836 56.0704 9.85003C56.9685 10.7286 57.409 11.9451 57.409 13.5332C57.409 15.3579 56.8668 16.7603 55.7484 17.7402C54.647 18.7033 53.0373 19.1932 50.9192 19.1932C50.6142 19.1932 50.1397 19.1763 49.5127 19.1594C48.8858 19.1425 48.5469 19.1256 48.513 19.1256C48.2758 19.1256 48.0724 19.1256 47.903 19.1256C47.7335 19.1256 47.4963 19.1425 47.2083 19.1763C47.2421 18.8384 47.2591 18.095 47.293 16.9799C47.3099 15.8479 47.3269 14.7835 47.3269 13.7867C47.3269 12.9926 47.3269 12.0971 47.3269 11.0665C47.3269 10.0528 47.293 9.208 47.2252 8.54907Z" fill="#252525"/>
<path fill-rule="evenodd" clip-rule="evenodd" d="M61.1029 13.8543V14.6146C61.1029 14.9525 61.1199 15.6114 61.1538 16.5913C61.1877 17.5713 61.2046 18.1795 61.2046 18.4329H61.5435C62.001 18.4329 62.611 18.416 63.3566 18.3822C64.1191 18.3485 64.8308 18.3147 65.4916 18.2471L65.4747 18.7202L65.4916 19.2101C65.2883 19.1932 64.8986 19.1763 64.3225 19.1594C63.7463 19.1425 63.2041 19.1425 62.6788 19.1425H59.6965C59.7304 18.8046 59.7474 18.0781 59.7813 16.9461C59.7982 15.831 59.8151 14.7666 59.8151 13.7698C59.8151 11.6747 59.8151 10.4076 59.7982 9.98519C59.7813 9.54591 59.7643 9.07283 59.7135 8.54907C59.9677 8.54907 60.3404 8.56597 60.8488 8.58287C61.3571 8.61666 61.696 8.61666 61.8824 8.61666C62.2721 8.61666 62.933 8.59976 63.8819 8.58287C64.8138 8.54907 65.373 8.54907 65.5425 8.54907L65.5086 9.07283L65.5425 9.5797C64.7291 9.42764 63.4074 9.34316 61.5774 9.34316H61.1877C61.1877 9.5797 61.1877 9.88382 61.1707 10.2217C61.1538 10.5596 61.1538 10.8807 61.1368 11.1848V13.1953H62.4416C62.6619 13.1953 63.1194 13.1784 63.7972 13.1446C64.475 13.1109 64.9494 13.094 65.2544 13.094L65.2205 13.5332L65.2544 13.9725C64.2886 13.888 63.3397 13.8374 62.4416 13.8374H61.1029V13.8543Z" fill="#252525"/>
<path fill-rule="evenodd" clip-rule="evenodd" d="M67.7453 19.1426C67.7792 18.8385 67.7961 17.7065 67.83 15.7466C67.847 13.7868 67.8639 11.8776 67.8639 10.0022V8.34644H68.1689C69.1348 9.41085 70.0837 10.4077 71.0157 11.3538C71.7104 12.0634 72.6085 12.9589 73.7268 14.0571C74.7096 15.0201 75.5569 15.8311 76.2516 16.49L76.2855 15.1384C76.2855 14.074 76.2685 13.0096 76.2516 11.9283C76.2177 10.847 76.2008 9.71497 76.1838 8.53229C76.3363 8.56608 76.5058 8.58297 76.6922 8.58297C76.8786 8.58297 77.0311 8.56608 77.1666 8.53229C77.1666 9.29258 77.1497 10.5091 77.1158 12.1648C77.0819 13.8206 77.0649 15.037 77.0649 15.8311V19.3285H76.8447C76.3533 18.7371 75.7433 18.0613 74.9977 17.301C74.3538 16.6252 73.5574 15.8142 72.6424 14.9019L68.6773 10.9652L68.6264 12.9758C68.6264 13.0096 68.6603 14.1247 68.7112 16.3549C68.7281 17.2334 68.745 18.1627 68.745 19.1257C68.5756 19.0919 68.4062 19.0751 68.2198 19.0751C68.0503 19.092 67.8809 19.1088 67.7453 19.1426Z" fill="#252525"/>
<path fill-rule="evenodd" clip-rule="evenodd" d="M83.7074 9.29257V13.8881C83.7074 14.6822 83.7074 15.5777 83.7074 16.6083C83.7074 17.6389 83.7412 18.4837 83.809 19.1426C83.5887 19.1088 83.3346 19.0751 83.0465 19.0751C82.7754 19.0751 82.5212 19.092 82.284 19.1257C82.3179 18.7878 82.3348 18.0782 82.3687 16.98C82.3857 15.8987 82.4026 14.8512 82.4026 13.8544V9.25878H81.9281C80.6742 9.25878 79.6575 9.32636 78.895 9.44463L78.9289 9.00535L78.895 8.51538C79.2509 8.51538 80.0134 8.53227 81.1826 8.54917C82.3518 8.56606 82.9787 8.58296 83.0465 8.58296C83.5379 8.58296 84.1649 8.58296 84.8935 8.56607C85.6221 8.54917 86.4016 8.54917 87.198 8.51538L87.1472 8.97156C87.1472 9.1743 87.1641 9.32636 87.198 9.44463C86.8252 9.37705 86.3846 9.32637 85.8932 9.29257C85.3849 9.25878 84.8596 9.24188 84.3004 9.24188H83.7074V9.29257Z" fill="#252525"/>
<path fill-rule="evenodd" clip-rule="evenodd" d="M92.2645 10.4921L90.5191 14.3105L91.7561 14.3443H93.9589L93.6878 13.7022L92.2645 10.4921ZM87.4352 19.1426C89.2313 15.4594 90.9258 11.8606 92.5186 8.36328H92.8236C93.3659 9.61355 93.8912 10.8638 94.4164 12.0803C94.8909 13.1616 95.4162 14.3612 96.0092 15.679C96.6701 17.132 97.1954 18.2978 97.5851 19.1595C97.3479 19.1257 97.0768 19.1088 96.7718 19.1088C96.6193 19.1088 96.5176 19.1088 96.4159 19.1088C96.3312 19.1088 96.1618 19.1257 95.9245 19.1764C95.7042 18.5512 95.5009 17.9937 95.2976 17.5037C95.0434 16.8617 94.7723 16.2366 94.5012 15.6283L94.23 15.0032H90.1802C90.0277 15.3073 89.8075 15.8142 89.5194 16.5407C89.1635 17.3855 88.8247 18.264 88.4858 19.1764C88.418 19.1595 88.3502 19.1426 88.2485 19.1257C88.1469 19.1088 88.0452 19.1088 87.9435 19.1088C87.791 19.1088 87.6724 19.1257 87.5877 19.1426C87.5369 19.1426 87.4691 19.1426 87.4352 19.1426Z" fill="#252525"/>
<path fill-rule="evenodd" clip-rule="evenodd" d="M100.635 8.54907C100.601 8.88698 100.584 9.59659 100.55 10.6948C100.533 11.7761 100.516 12.8236 100.516 13.8205C100.516 14.1246 100.533 14.8342 100.584 15.9324C100.618 17.0306 100.652 17.8585 100.652 18.416L101.77 18.4498C103.177 18.4498 104.295 18.3653 105.126 18.1964L105.092 18.6864L105.126 19.1594L101.313 19.1087C100.923 19.1087 100.533 19.1087 100.127 19.1256C99.7201 19.1425 99.3812 19.1594 99.127 19.1594C99.1609 18.8215 99.1778 18.095 99.2117 16.9799C99.2287 15.8648 99.2456 14.8173 99.2456 13.8205C99.2456 13.0264 99.2456 12.1309 99.2456 11.1003C99.2456 10.0697 99.2117 9.22489 99.144 8.56597C99.3642 8.59976 99.6184 8.61666 99.9065 8.61666C100.161 8.61666 100.415 8.59976 100.635 8.54907Z" fill="#252525"/>
<path d="M105.6 0H0V0.7434H105.6V0Z" fill="#252525"/>
<path d="M105.6 27.2693H75.5908V28.0127H105.6V27.2693Z" fill="#252525"/>
<path d="M30.0092 27.2693H0V28.0127H30.0092V27.2693Z" fill="#252525"/>
<path fill-rule="evenodd" clip-rule="evenodd" d="M39.4305 31.4087C38.8544 31.8141 38.0071 32 36.8718 32C35.6179 32 34.6351 31.6621 33.9404 31.0032C33.2456 30.3442 32.9067 29.415 32.9067 28.1985C32.9067 27.0496 33.2795 26.1204 34.042 25.4276C34.8046 24.7349 35.8212 24.3801 37.126 24.3801C38.0071 24.3801 38.8205 24.5491 39.566 24.9039C39.4474 25.2587 39.3796 25.5966 39.3796 25.9176C38.8544 25.1573 38.0749 24.7856 37.0752 24.7856C36.1262 24.7856 35.3976 25.0897 34.8723 25.6811C34.347 26.2724 34.0759 27.1172 34.0759 28.1985C34.0759 29.246 34.347 30.0739 34.8723 30.6653C35.3976 31.2566 36.1093 31.5607 37.0074 31.5607C37.8716 31.5607 38.7019 31.2566 39.4813 30.6653L39.4305 31.4087Z" fill="#252525"/>
<path fill-rule="evenodd" clip-rule="evenodd" d="M43.0229 24.5322C43.0059 24.7688 42.989 25.2587 42.972 26.019C42.9551 26.7624 42.9551 27.4889 42.9551 28.1817C42.9551 28.4013 42.972 28.8744 43.0059 29.6347C43.0398 30.395 43.0398 30.9694 43.0398 31.358L43.8193 31.3749C44.7851 31.3749 45.5646 31.3242 46.1407 31.206L46.1238 31.5439L46.1407 31.8649L43.4973 31.8311C43.2262 31.8311 42.9551 31.8311 42.667 31.848C42.379 31.8649 42.1587 31.8649 41.9723 31.8649C41.9892 31.6283 42.0062 31.1215 42.0231 30.3612C42.0401 29.6009 42.0401 28.8744 42.0401 28.1817C42.0401 27.641 42.0401 27.0159 42.0401 26.3063C42.0401 25.5966 42.0062 25.0053 41.9723 24.5491C42.1248 24.5829 42.3112 24.5829 42.4976 24.5829C42.684 24.5829 42.8534 24.566 43.0229 24.5322Z" fill="#252525"/>
<path fill-rule="evenodd" clip-rule="evenodd" d="M49.716 24.5322C49.6991 24.7688 49.6822 25.2587 49.6652 26.019C49.6483 26.7624 49.6483 27.4889 49.6483 28.1817C49.6483 28.7392 49.6483 29.3643 49.6483 30.0909C49.6483 30.8174 49.6822 31.4087 49.716 31.8649C49.5635 31.8311 49.3771 31.8142 49.1908 31.8142C49.0044 31.8142 48.818 31.8311 48.6655 31.848C48.6824 31.6115 48.6994 31.1046 48.7163 30.3443C48.7332 29.584 48.7332 28.8575 48.7332 28.1648C48.7332 27.6241 48.7332 26.999 48.7332 26.2894C48.7332 25.5797 48.6994 24.9884 48.6655 24.5322C48.818 24.566 49.0044 24.566 49.1908 24.566C49.3771 24.5829 49.5635 24.566 49.716 24.5322Z" fill="#252525"/>
<path fill-rule="evenodd" clip-rule="evenodd" d="M52.817 31.8479C52.8339 31.6452 52.8508 30.8511 52.8678 29.4995C52.8847 28.1478 52.8847 26.83 52.8847 25.529V24.3801H53.105C53.7828 25.1066 54.4267 25.7993 55.0706 26.4583C55.5451 26.9482 56.172 27.5734 56.9515 28.3337C57.6293 28.9926 58.2054 29.567 58.6968 30.0232L58.7138 29.0771C58.7138 28.3506 58.6968 27.6072 58.6799 26.8638C58.6629 26.1204 58.646 25.3432 58.629 24.5153C58.7307 24.5491 58.8493 24.5491 58.9849 24.5491C59.1204 24.5491 59.2221 24.5322 59.3238 24.5153C59.3238 25.039 59.3068 25.8838 59.2899 27.0158C59.2729 28.1647 59.256 29.0095 59.256 29.5501V31.9662H59.1035C58.7646 31.5607 58.341 31.0876 57.8326 30.5639C57.3751 30.0908 56.8498 29.5332 56.2059 28.9081L53.4609 26.1879L53.427 27.5734C53.427 27.5903 53.4439 28.3675 53.4778 29.905C53.4947 30.5132 53.4948 31.1552 53.4948 31.831C53.3761 31.7972 53.2575 31.7972 53.1389 31.7972C53.0203 31.8141 52.9017 31.831 52.817 31.8479Z" fill="#252525"/>
<path fill-rule="evenodd" clip-rule="evenodd" d="M63.4583 24.5322C63.4413 24.7688 63.4244 25.2587 63.4075 26.019C63.3905 26.7624 63.3905 27.4889 63.3905 28.1817C63.3905 28.7392 63.3905 29.3643 63.3905 30.0909C63.3905 30.8174 63.4244 31.4087 63.4583 31.8649C63.3058 31.8311 63.1194 31.8142 62.933 31.8142C62.7466 31.8142 62.5602 31.8311 62.4077 31.848C62.4247 31.6115 62.4416 31.1046 62.4586 30.3443C62.4755 29.584 62.4755 28.8575 62.4755 28.1648C62.4755 27.6241 62.4755 26.999 62.4755 26.2894C62.4755 25.5797 62.4416 24.9884 62.4077 24.5322C62.5602 24.566 62.7466 24.566 62.933 24.566C63.1194 24.5829 63.2888 24.566 63.4583 24.5322Z" fill="#252525"/>
<path fill-rule="evenodd" clip-rule="evenodd" d="M72.5407 31.4087C71.9646 31.8141 71.1174 32 69.9821 32C68.7281 32 67.7453 31.6621 67.0506 31.0032C66.3559 30.3442 66.017 29.415 66.017 28.1985C66.017 27.0496 66.3898 26.1204 67.1523 25.4276C67.9148 24.7349 68.9315 24.3801 70.2362 24.3801C71.1174 24.3801 71.9307 24.5491 72.6763 24.9039C72.5577 25.2587 72.4899 25.5966 72.4899 25.9176C71.9646 25.1573 71.1851 24.7856 70.1854 24.7856C69.2365 24.7856 68.5079 25.0897 67.9826 25.6811C67.4573 26.2724 67.1862 27.1172 67.1862 28.1985C67.1862 29.246 67.4403 30.0739 67.9826 30.6653C68.5079 31.2566 69.2195 31.5607 70.1176 31.5607C70.9818 31.5607 71.8121 31.2566 72.5916 30.6653L72.5407 31.4087Z" fill="#252525"/>
</svg>
